<mxfile host="app.diagrams.net" agent="Mozilla/5.0 (Windows NT 10.0; Win64; x64) AppleWebKit/537.36 (KHTML, like Gecko) Chrome/126.0.0.0 YaBrowser/24.7.0.0 Safari/537.36" version="24.7.17">
  <diagram name="Страница — 1" id="ATd5MyNfZhl1PZkvHoJz">
    <mxGraphModel dx="1179" dy="676" grid="1" gridSize="10" guides="1" tooltips="1" connect="1" arrows="1" fold="1" page="1" pageScale="1" pageWidth="827" pageHeight="1169" math="0" shadow="0">
      <root>
        <mxCell id="0" />
        <mxCell id="1" parent="0" />
        <mxCell id="sTzm6OASedwomy-OpBXz-2" value="" style="ellipse;whiteSpace=wrap;html=1;aspect=fixed;strokeColor=default;fillColor=#000000;" vertex="1" parent="1">
          <mxGeometry x="300" y="50" width="30" height="30" as="geometry" />
        </mxCell>
        <mxCell id="sTzm6OASedwomy-OpBXz-3" value="Подключена к эл. сети" style="rounded=1;whiteSpace=wrap;html=1;" vertex="1" parent="1">
          <mxGeometry x="255" y="150" width="120" height="60" as="geometry" />
        </mxCell>
        <mxCell id="sTzm6OASedwomy-OpBXz-4" value="" style="endArrow=classic;html=1;rounded=0;entryX=0.5;entryY=0;entryDx=0;entryDy=0;exitX=0.5;exitY=1;exitDx=0;exitDy=0;" edge="1" parent="1" source="sTzm6OASedwomy-OpBXz-2" target="sTzm6OASedwomy-OpBXz-3">
          <mxGeometry width="50" height="50" relative="1" as="geometry">
            <mxPoint x="320" y="80" as="sourcePoint" />
            <mxPoint x="370" y="30" as="targetPoint" />
          </mxGeometry>
        </mxCell>
        <mxCell id="sTzm6OASedwomy-OpBXz-5" value="Не подключена к эл сети" style="text;html=1;align=center;verticalAlign=middle;whiteSpace=wrap;rounded=0;" vertex="1" parent="1">
          <mxGeometry x="285" y="10" width="60" height="30" as="geometry" />
        </mxCell>
        <mxCell id="sTzm6OASedwomy-OpBXz-6" value="Установка мощности" style="rounded=1;whiteSpace=wrap;html=1;" vertex="1" parent="1">
          <mxGeometry x="255" y="250" width="120" height="60" as="geometry" />
        </mxCell>
        <mxCell id="sTzm6OASedwomy-OpBXz-7" value="" style="endArrow=classic;html=1;rounded=0;entryX=0.46;entryY=-0.033;entryDx=0;entryDy=0;entryPerimeter=0;" edge="1" parent="1">
          <mxGeometry width="50" height="50" relative="1" as="geometry">
            <mxPoint x="314.71" y="210" as="sourcePoint" />
            <mxPoint x="314.9099999999999" y="248.01999999999998" as="targetPoint" />
          </mxGeometry>
        </mxCell>
        <mxCell id="sTzm6OASedwomy-OpBXz-14" value="" style="edgeStyle=orthogonalEdgeStyle;rounded=0;orthogonalLoop=1;jettySize=auto;html=1;" edge="1" parent="1" source="sTzm6OASedwomy-OpBXz-8" target="sTzm6OASedwomy-OpBXz-10">
          <mxGeometry relative="1" as="geometry" />
        </mxCell>
        <mxCell id="sTzm6OASedwomy-OpBXz-8" value="Установка времени" style="rounded=1;whiteSpace=wrap;html=1;" vertex="1" parent="1">
          <mxGeometry x="255" y="350" width="120" height="60" as="geometry" />
        </mxCell>
        <mxCell id="sTzm6OASedwomy-OpBXz-9" value="" style="endArrow=classic;html=1;rounded=0;entryX=0.464;entryY=0;entryDx=0;entryDy=0;entryPerimeter=0;" edge="1" parent="1">
          <mxGeometry width="50" height="50" relative="1" as="geometry">
            <mxPoint x="314.66" y="310" as="sourcePoint" />
            <mxPoint x="315.3400000000001" y="350" as="targetPoint" />
          </mxGeometry>
        </mxCell>
        <mxCell id="sTzm6OASedwomy-OpBXz-10" value="Запуск" style="rounded=1;whiteSpace=wrap;html=1;" vertex="1" parent="1">
          <mxGeometry x="255" y="460" width="120" height="60" as="geometry" />
        </mxCell>
        <mxCell id="sTzm6OASedwomy-OpBXz-12" value="Работа" style="rounded=1;whiteSpace=wrap;html=1;" vertex="1" parent="1">
          <mxGeometry x="255" y="560" width="120" height="60" as="geometry" />
        </mxCell>
        <mxCell id="sTzm6OASedwomy-OpBXz-13" value="" style="endArrow=classic;html=1;rounded=0;exitX=0.5;exitY=1;exitDx=0;exitDy=0;" edge="1" parent="1" source="sTzm6OASedwomy-OpBXz-10">
          <mxGeometry width="50" height="50" relative="1" as="geometry">
            <mxPoint x="310" y="510" as="sourcePoint" />
            <mxPoint x="315" y="560" as="targetPoint" />
          </mxGeometry>
        </mxCell>
        <mxCell id="sTzm6OASedwomy-OpBXz-15" value="Завершение" style="rounded=1;whiteSpace=wrap;html=1;" vertex="1" parent="1">
          <mxGeometry x="255" y="660" width="120" height="60" as="geometry" />
        </mxCell>
      </root>
    </mxGraphModel>
  </diagram>
</mxfile>
